<?xml version="1.0" standalone="no"?><!DOCTYPE svg PUBLIC "-//W3C//DTD SVG 1.1//EN" "http://www.w3.org/Graphics/SVG/1.1/DTD/svg11.dtd"><svg t="1739264757961" class="icon" viewBox="0 0 1614 1024" version="1.1" xmlns="http://www.w3.org/2000/svg" p-id="4991" xmlns:xlink="http://www.w3.org/1999/xlink" width="315.234375" height="200"><path d="M1077.76 271.714462V369.427692h-64.590769v312.635077h80.738461c16.147692 0 20.204308 7.876923 24.300308 23.512616 4.056615 78.178462 4.056615 78.178462-68.647385 78.178461h-302.749538c20.243692-35.209846 32.295385-66.481231 52.499692-93.814154 4.096-3.938462 16.147692-7.876923 28.199385-7.876923h80.699077V369.427692h-64.590769V271.753846h234.141538z m-335.005538 410.505846c-20.243692 35.209846-32.295385 62.542769-48.443077 93.774769-4.056615 3.938462-12.051692 11.697231-16.147693 11.697231h-153.403077c20.243692-39.148308 40.448-74.200615 52.499693-101.691077h165.494154v-3.780923z m585.255384-445.715693c-4.096 27.293538 8.152615 35.209846 36.352 39.148308 80.659692 0 121.107692 42.929231 125.203692 121.304615v66.441847c64.551385-3.938462 104.999385 23.552 125.203693 74.200615v175.891692c-32.295385 62.503385-64.590769 78.139077-133.198769 70.419693-44.307692-7.876923-68.608-31.271385-76.603077-82.077539h80.699077c16.147692 0 24.300308-3.938462 24.300307-23.552v-78.178461c0-23.512615-12.051692-35.209846-36.352-35.209847h-145.250461V783.753846h-104.999385v-222.798769h-105.353846v-101.691077h100.903385V373.208615h-68.647385V275.456c20.243692 0 44.347077-3.938462 68.647385-3.938462V236.307692h109.095384v0.196923z m-1009.152 0v453.435077c0 66.481231-44.307692 97.752615-104.96 89.836308-40.448-7.876923-64.590769-35.209846-64.590769-82.077538h68.647385V236.504615h100.903384zM141.390769 377.147077c-4.096 31.271385-8.152615 58.564923-8.152615 89.836308v27.332923c-4.096 82.077538-12.051692 164.233846-68.647385 242.333538-20.204308-35.209846-40.448-70.419692-60.455384-105.432615C0 627.278769 0 623.300923 0 615.581538c8.152615-31.271385 16.147692-66.481231 20.204308-101.691076 4.096-42.929231 8.192-89.836308 12.091077-136.900924h109.056v0.157539z m355.249231-3.741539c4.056615 62.503385 4.056615 125.046154 16.147692 183.768616 16.108308 66.481231-8.192 121.304615-44.347077 175.891692-48.443077-42.929231-76.642462-168.172308-76.642461-355.721846h104.841846v-3.938462z m266.358154-136.900923c-24.300308 50.806154-52.499692 97.713231-72.704 144.620308 44.307692-3.938462 80.699077-3.938462 125.203692-7.876923-24.300308 46.867692-44.347077 86.016-68.647384 128.945231-4.056615 3.938462-4.056615 11.697231-8.152616 15.635692-24.300308 42.929231-24.300308 42.929231 28.199385 42.929231h20.204307c-12.051692 27.332923-24.300308 50.884923-40.448 74.200615-4.056615 3.938462-8.152615 7.916308-12.051692 7.916308h-44.307692c-20.243692 0-44.347077 0-64.590769-3.938462-28.16-3.938462-36.312615-23.552-24.260923-46.867692 12.051692-31.271385 28.199385-58.604308 40.408615-89.875692 4.096-11.657846 8.192-19.574154 16.147692-35.209846h-48.443077c-44.307692 0-56.556308-19.574154-40.408615-58.564923 24.300308-54.784 56.595692-113.348923 88.851692-171.913847h104.999385zM1327.970462 369.427692v74.200616c0 3.938462 12.091077 15.635692 16.147692 15.635692 12.051692 0 36.352-3.938462 36.352-7.876923 4.096-23.552 4.096-46.907077-4.056616-70.459077 0-7.522462-24.300308-7.522462-48.443076-11.500308z m286.601846-62.503384v31.271384c-24.300308 39.148308-60.455385 39.148308-100.903385 35.209846-12.051692-50.845538-4.056615-82.116923 24.300308-93.814153 28.199385-15.793231 48.246154-3.938462 76.603077 27.332923z" fill="#999999" p-id="4992"></path></svg>